<svg height="190mm" viewBox="0 0 210 190" width="210mm" xmlns="http://www.w3.org/2000/svg" xmlns:xlink="http://www.w3.org/1999/xlink"><marker id="a" orient="auto" overflow="visible" refX="0" refY="0"><path d="m0 0 5-5-17.5 5 17.5 5z" fill="#5b00ff" fill-rule="evenodd" stroke="#5b00ff" stroke-width="1pt" transform="matrix(-.2 0 0 -.2 -1.2 0)"/></marker><marker id="b" orient="auto" overflow="visible" refX="0" refY="0"><path d="m0 0 5-5-17.5 5 17.5 5z" fill="#70f" fill-rule="evenodd" stroke="#70f" stroke-width="1pt" transform="matrix(-.2 0 0 -.2 -1.2 0)"/></marker><marker id="c" orient="auto" overflow="visible" refX="0" refY="0"><path d="m0 0 5-5-17.5 5 17.5 5z" fill="#8c00ff" fill-rule="evenodd" stroke="#8c00ff" stroke-width="1pt" transform="matrix(-.2 0 0 -.2 -1.2 0)"/></marker><marker id="d" orient="auto" overflow="visible" refX="0" refY="0"><path d="m0 0 5-5-17.5 5 17.5 5z" fill="#00f" fill-rule="evenodd" stroke="#00f" stroke-width="1pt" transform="matrix(-.2 0 0 -.2 -1.2 0)"/></marker><marker id="e" orient="auto" overflow="visible" refX="0" refY="0"><path d="m0 0 5-5-17.5 5 17.5 5z" fill="#00f" fill-rule="evenodd" stroke="#00f" stroke-width="1pt" transform="matrix(-.4 0 0 -.4 -4 0)"/></marker><g transform="translate(0 -107)"><text font-family="Bitstream Vera Sans" font-size="9.792366" letter-spacing="0" stroke-width=".408015" transform="scale(.91812198 1.0891799)" word-spacing="0" x="161.98083" y="111.65084"><tspan stroke-width=".408015" x="161.98083" y="111.65084">TURN server</tspan></text><g stroke="#000" stroke-linecap="round"><path d="m6.421818 124.88577h61.991837v165.6924h-61.991837z" fill="none" stroke-width="1.014699"/><path d="m153.48799 126.48203h51.240467v161.43079h-51.240467z" fill="none" stroke-width=".872041"/><path d="m57.730225 143.5873h48.854595v23.731262h-48.854595z" fill="#fff" stroke-width=".788455"/><path d="m57.089909 215.4008h57.195675v27.341019h-57.195675z" fill="#fff" stroke-width=".915699"/><path d="m13.898019 130.75836h40.624969v22.450638h-40.624969z" fill="#fff"/></g><text font-family="Bitstream Vera Sans" font-size="7.40394" letter-spacing="0" stroke-width=".308497" transform="scale(1.0235983 .97694575)" word-spacing="0" x="17.723101" y="142.73822"><tspan stroke-width=".308497" x="17.723101" y="142.73822">Sender</tspan><tspan stroke-width=".308497" x="17.723101" y="150.45065">thread</tspan></text><path d="m13.898019 156.62778h40.624969v22.450638h-40.624969z" fill="#fff" stroke="#000" stroke-linecap="round"/><text font-family="Bitstream Vera Sans" font-size="7.40394" letter-spacing="0" stroke-width=".308497" transform="scale(1.0235983 .97694575)" word-spacing="0" x="17.723101" y="169.21811"><tspan stroke-width=".308497" x="17.723101" y="169.21811">Receiver</tspan><tspan stroke-width=".308497" x="17.723101" y="176.93054">thread</tspan></text><path d="m11.548316 218.0735h41.265278v61.763264h-41.265278z" fill="#fff" stroke="#000" stroke-linecap="round"/><path d="m129.09119 229.8756h57.195675v27.341019h-57.195675z" fill="#fff" stroke="#000" stroke-linecap="round" stroke-width=".915699"/><path d="m58.158985 252.49576h57.195675v27.341019h-57.195675z" fill="#fff" stroke="#000" stroke-linecap="round" stroke-width=".915699"/><path d="m126.41848 136.8658h57.195675v27.341019h-57.195675z" fill="#fff" stroke="#000" stroke-linecap="round" stroke-width=".915699"/><path d="m128.02211 170.62128h57.195675v27.341019h-57.195675z" fill="#fff" stroke="#000" stroke-linecap="round" stroke-width=".915699"/><path d="m47.573974 139.84552s20.439269 8.81744 32.339613 10.69078c11.900344 1.87335 38.219543-.26727 38.219543-.26727s21.98536-1.82478 34.47777-4.54358c12.49241-2.71881 30.6273-17.46274 40.09043-12.2944s5.96007 15.23754 6.1472 23.25245c.51392 22.01177 0 61.73926 0 61.73926s-.15276 9.49553-4.54359 14.96709c-6.20567 7.73311-25.3906 4.27632-25.3906 4.27632s-37.91462-11.22032-57.46295-13.36348c-17.535619-1.9225-51.583017.53454-52.919364.53454-1.336349 0-14.503061-7.67698-20.045214-3.74178-4.335377 3.07833-5.995844 11.84711-2.405427 15.76891 4.762038 5.20156 21.114292-1.33635 21.114292-1.33635s37.691576-3.91947 45.703093-2.6727c7.14998 1.1127 43.03039 8.8199 43.03039 8.8199s43.96804 7.8527 50.78121 1.33635 6.94901-38.48682 6.94901-38.48682.49754-47.14141-.53454-66.28284c-.82982-15.39018-23.0918 10.03125-44.09947 13.89802s-63.166376.52103-81.784476 4.81085c-13.507174 2.3274-16.91082 4.94496-28.311576 11.42774" fill="none" marker-end="url(#e)" marker-mid="url(#d)" stroke="#00f" stroke-width="1.065"/><text font-family="Bitstream Vera Sans" font-size="8.469295" letter-spacing="0" stroke-width=".352887" transform="scale(1.0278787 .97287744)" word-spacing="0" x="128.43095" y="247.90083"><tspan stroke-width=".352887" x="128.43095" y="247.90083"><tspan stroke-width=".352887" x="128.43095" y="247.90083">TURN server</tspan><tspan dx="0" stroke-width=".352887" x="181.56256" y="247.90083"/></tspan><tspan stroke-width=".352887" x="128.43095" y="256.72302"><tspan stroke-width=".352887" x="128.43095" y="256.72302">port</tspan></tspan></text><path d="m47.573974 139.84552s22.680392 9.7735 34.745038 11.75986c9.142262 1.50521 18.687528-1.69755 27.796038 0 13.92866 2.59588 6.41447 19.77794 15.50163 28.0633 9.08716 8.28535 44.67237-11.15548 61.20472.80181 4.65707 3.3683 3.80437 11.96355 5.61266 16.30344 2.6727 6.41446 6.41447 12.56167 6.41447 12.56167" fill="none" marker-mid="url(#c)" stroke="#8c00ff"/><text font-family="Bitstream Vera Sans" font-size="8.469294" letter-spacing="0" stroke-width=".352887" transform="scale(1.0278787 .97287744)" word-spacing="0" x="127.91091" y="157.24303"><tspan stroke-width=".352887" x="127.91091" y="157.24303"><tspan stroke-width=".352887" x="127.91091" y="157.24303">Allocation</tspan></tspan></text><path d="m203.12484 220.02638s-8.83608-9.99229-12.56167-15.50164c-4.51281-6.67348-4.61437-17.39369-11.75986-21.11429-13.90139-7.23833-32.01558 10.09153-46.77216 4.81085-13.4641-4.81817-18.53885-22.19343-30.20146-30.46872-1.68997-1.19913-5.61266-2.6727-5.61266-2.6727" fill="none" marker-mid="url(#b)" stroke="#70f"/><text font-family="Bitstream Vera Sans" font-size="8.469294" letter-spacing="0" stroke-width=".352887" transform="scale(1.0278787 .97287744)" word-spacing="0" x="129.47104" y="191.93956"><tspan stroke-width=".352887" x="129.47104" y="191.93956"><tspan stroke-width=".352887" x="129.47104" y="191.93956">Allocation</tspan></tspan></text><text font-family="Bitstream Vera Sans" font-size="7.610209" letter-spacing="0" stroke-width=".317092" transform="scale(1.0937145 .9143154)" word-spacing="0" x="57.145393" y="168.46233"><tspan stroke-width=".317092" x="57.145393" y="168.46233"><tspan stroke-width=".317092" x="57.145393" y="168.46233">Probing</tspan><tspan dx="0" stroke-width=".317092" x="85.847183" y="168.46233"/></tspan><tspan stroke-width=".317092" x="57.145393" y="176.38963"><tspan stroke-width=".317092" x="57.145393" y="176.38963">UDP port</tspan></tspan></text><path d="m127.43727 226.84083c-.56697.18899-8.02023.74045-10.01637 3.68527-5.26852 7.77244 3.24979 20.84516-3.40179 27.02529-8.91897 8.28682-22.928217 1.89933-36.474705 1.88988-12.601723-.009-25.6652-4.16299-37.797618-.75595-5.75408 1.61587-15.904305 3.71354-15.119048 9.63839.884813 6.67601 12.583078 2.66267 19.276785 3.40179 25.414399 2.80625 33.574433 1.81647 59.531246-.94494 11.87985-1.26384 28.47451-5.69432 22.8206-14.5089-9.75357-15.20604-2.97684-19.31997-2.97684-19.31997" fill="none" marker-mid="url(#a)" stroke="#5b00ff"/><text font-family="Bitstream Vera Sans" font-size="9.911653" letter-spacing="0" stroke-width=".412986" transform="scale(.97821927 1.0222657)" word-spacing="0" x="17.388083" y="232.37331"><tspan stroke-width=".412986" x="17.388083" y="232.37331"><tspan stroke-width=".412986" x="17.388083" y="232.37331">TURN</tspan><tspan dx="0" stroke-width=".412986" x="45.012943" y="232.37331"/></tspan><tspan stroke-width=".412986" x="17.388083" y="242.69797"><tspan stroke-width=".412986" x="17.388083" y="242.69797">client</tspan><tspan dx="0" stroke-width=".412986" x="44.625767" y="242.69797"/></tspan><tspan stroke-width=".412986" x="17.388083" y="253.0226"><tspan stroke-width=".412986" x="17.388083" y="253.0226">thread</tspan></tspan></text><text font-family="Bitstream Vera Sans" font-size="8.469295" letter-spacing="0" stroke-width=".352887" transform="scale(1.0278787 .97287744)" word-spacing="0" x="59.42263" y="271.15161"><tspan stroke-width=".352887" x="59.42263" y="271.15161"><tspan stroke-width=".352887" x="59.42263" y="271.15161">TURN client</tspan><tspan dx="0" stroke-width=".352887" x="108.99779" y="271.15161"/></tspan><tspan stroke-width=".352887" x="59.42263" y="279.97382"><tspan stroke-width=".352887" x="59.42263" y="279.97382">UDP port</tspan></tspan></text><text font-family="Bitstream Vera Sans" font-size="8.469295" letter-spacing="0" stroke-width=".352887" transform="scale(1.0278787 .97287744)" word-spacing="0" x="58.382549" y="233.02252"><tspan stroke-width=".352887" x="58.382549" y="233.02252"><tspan stroke-width=".352887" x="58.382549" y="233.02252">TURN client</tspan><tspan dx="0" stroke-width=".352887" x="107.9577" y="233.02252"/></tspan><tspan stroke-width=".352887" x="58.382549" y="241.84471"><tspan stroke-width=".352887" x="58.382549" y="241.84471">UDP port</tspan></tspan></text><text font-family="Bitstream Vera Sans" font-size="8.890472" letter-spacing="0" word-spacing="0" x="7.74995" y="119.87416"><tspan x="7.74995" y="119.87416">TURN_Hammer</tspan></text></g></svg>